# xmcd
# 
# Track frame offsets:
#     150
#     16665
#     38357
#     57687
#     79070
#     100495
#     115745
# 
# Disc length: 1827
# 
# Revision: 0
# Processed by: cddbd v1.5.2PL0 Copyright (c) Steve Scherf et al.
# Submitted via: BonkEnc v1.0.8
# 
DISCID=4c072107
DTITLE=RAFAEL MENDEZ - CONCERTO FOR MENDEZ
DYEAR=0
DGENRE=CLASSICAL
TTITLE0=ZAPATEADO
TTITLE1=MINUET
TTITLE2=THE BULLFIGHTER'S PRAYER
TTITLE3=MALAQUENA SALEROSA
TTITLE4=AIRE DE BAILECITO
TTITLE5=TRISTE
TTITLE6=AIRE DE MALAMBO
EXTD=
EXTT0=
EXTT1=
EXTT2=
EXTT3=
EXTT4=
EXTT5=
EXTT6=
PLAYORDER=
